<?xml version="1.0" encoding="utf-8"?>
<!-- Generator: Adobe Illustrator 19.0.1, SVG Export Plug-In . SVG Version: 6.00 Build 0)  -->
<svg version="1.1" id="Слой_1" xmlns="http://www.w3.org/2000/svg" xmlns:xlink="http://www.w3.org/1999/xlink" x="0px" y="0px"
	 viewBox="0 0 140 76" style="enable-background:new 0 0 140 76;" xml:space="preserve">
<style type="text/css">
	.st0{fill:#494980;}
	.st1{fill-rule:evenodd;clip-rule:evenodd;fill:#494980;}
</style>
<g>
	<g>
		<path class="st0" d="M76.6,34.6c0,4.3-1.2,7-6.4,7H56.6c-2.4,0-3.8-1.2-3.8-3.9V20.2c0-2.7,1.5-3.9,3.8-3.9h13.2
			c4.4,0,6.3,2.2,6.3,7c0,2.6-0.9,4.9-3.7,5.3v0.1C75.7,29.3,76.6,31.4,76.6,34.6z M59.3,26.5h7.8c1.8,0,2.5-0.7,2.5-2.7
			c0-1.8-0.7-2.6-2.5-2.6h-6.2c-1.3,0-1.6,0.4-1.6,1.6V26.5z M59.3,34.9c0,1.4,0.4,1.8,1.8,1.8h6c2,0,2.8-0.8,2.8-2.8
			c0-2-0.8-2.8-2.6-2.8h-8V34.9z"/>
		<path class="st0" d="M87.5,41.6V21.4H78v-5.1h25.3v5.1H94v20.3H87.5z"/>
	</g>
	<g>
		<path class="st0" d="M130.9,29c0,10.6-3.5,13-13.5,13c-10,0-13.5-2.4-13.5-13c0-10.5,3.5-13,13.5-13C127.3,16,130.9,18.4,130.9,29
			z M117.4,36.9c5.3,0,6.8-1.9,6.8-7.9s-1.5-7.9-6.8-7.9c-5.3,0-6.8,1.9-6.8,7.9S112.1,36.9,117.4,36.9z"/>
	</g>
	<path class="st1" d="M14.6,0l3,5C10.5,13.3,4.2,20.3,6.2,32.1c3,17.7,32.2,17.9,34-2.5c0.5-5.5-1.4-9.5-2.8-12.2
		c-1.4-2.6-6.3-9-6.8-9c-0.4,0-8.1,7.2-9.6,9.1C6.8,37,33,39.9,29.5,26.2c-0.4-1.5-2.4-5.2-2.6-5.6c-0.2-0.4,3.6-4.2,3.6-4.2
		c3.7,3.9,9.4,21-4.8,23.5C11.6,42.3,7.3,27.1,14,17.6C18.8,10.9,28.7,1.3,30.7,1C31.2,1,35.6,5.8,37.5,8c7.7,8.8,10,18,6.8,28.6
		c-3.3,10.8-14.1,15.8-26.2,14C0.5,48-3.8,27.6,3.2,14.9C6.5,8.8,10.5,3.6,14.6,0"/>
	<g>
		<path class="st0" d="M31.8,61.2c0.7,0.1,1,0.5,1,1.2c0,1.1-0.6,1.5-1.6,1.5h-2.6c-0.6,0-1-0.3-1-1v-3.3c0-0.6,0.3-1,1-1h2.6
			c0.9,0,1.6,0.2,1.6,1.3C32.8,60.7,32.6,61.1,31.8,61.2L31.8,61.2z M30.6,60.7c0.4,0,0.6-0.1,0.6-0.5s-0.2-0.5-0.6-0.5h-1.1
			c-0.2,0-0.3,0.1-0.3,0.4v0.6H30.6z M29.2,62.5c0,0.2,0.1,0.4,0.3,0.4h1.1c0.4,0,0.6-0.1,0.6-0.5c0-0.4-0.2-0.5-0.6-0.5h-1.5V62.5z
			"/>
		<path class="st0" d="M35.6,63.9c-1.8,0-2.2-1-2.2-2.6c0-1.6,0.4-2.6,2.2-2.6h2.5v1.1h-1.9c-1,0-1.2,0.6-1.2,1.5s0.2,1.5,1.2,1.5h2
			v1.1H35.6z"/>
	</g>
	<g>
		<path class="st0" d="M40.6,63.9c-1.7,0-2-0.7-2-2.6c0-2.2,0.6-2.7,2.7-2.7c1.7,0,2.7,0.3,2.7,2.1c0,0.6-0.2,1.1-0.8,1.1h-3
			c0,0.6,0.2,1,1,1h2.5v1.1H40.6z M39.4,58.1V57h1.4v1.1H39.4z M42.1,60.7c0.3,0,0.3-0.2,0.3-0.3c0-0.5-0.6-0.7-1.1-0.7
			c-0.7,0-1.1,0.2-1.1,1H42.1z M41.7,57h1.4v1.1h-1.4V57z"/>
		<path class="st0" d="M46.4,63.8c0-0.7,0.3-1,1-1h0.1l1.6-3.6c0.2-0.5,0.7-0.6,1.2-0.6c0.5,0,0.9,0.1,1.1,0.6l1.6,3.6h0.1
			c0.6,0,1,0.3,1,1v1.4h-1.5v-0.9c0-0.2-0.1-0.3-0.3-0.3h-4.1c-0.2,0-0.3,0.1-0.3,0.3v0.9h-1.5V63.8z M49,62.8h2.5l-1.1-2.7
			c0-0.1-0.1-0.2-0.2-0.2c-0.1,0-0.1,0.1-0.2,0.2L49,62.8z"/>
	</g>
	<g>
		<path class="st0" d="M57.5,60.3c0-0.1,0-0.2-0.1-0.2c-0.1,0-0.1,0.1-0.1,0.2l-1.5,3.6h-1.6l2.2-4.8c0.2-0.4,0.6-0.5,1-0.5
			s0.8,0.1,0.9,0.5l2.2,4.8h-1.6L57.5,60.3z"/>
		<path class="st0" d="M62.1,62.1c0,0,0.1-0.1,0.1-0.1c0-0.1-0.1-0.1-0.1-0.1h-0.2c-0.9,0-1.2-0.8-1.2-1.7s0.3-1.6,1.3-1.6h3
			c0.6,0,1,0.3,1,1v4.2h-1.5v-3.8c0-0.2-0.1-0.4-0.4-0.4h-1.3c-0.4,0-0.5,0.2-0.5,0.6c0,0.4,0.1,0.6,0.5,0.6h0.6
			c0.3,0,0.6,0.1,0.6,0.5c0,0.3-0.1,0.6-0.2,0.7l-1.4,1.8h-1.7L62.1,62.1z"/>
		<path class="st0" d="M72.6,63.9l-1.1-1.7l-1.1,1.7h-1.8l2-2.7l-1.9-2.5h1.8l1,1.6l1-1.6h1.8l-1.9,2.5l2,2.7H72.6z"/>
		<path class="st0" d="M78.7,63.9l0.1-3.2c0-0.1,0-0.1-0.1-0.1c0,0-0.1,0-0.2,0.1l-2.1,2.8C76.2,63.9,76,64,75.6,64
			c-0.5,0-0.9-0.3-0.9-0.9v-4.4h1.5l-0.1,3.2c0,0.1,0,0.1,0.1,0.1s0.1-0.1,0.2-0.1l2.1-2.9c0.2-0.2,0.4-0.4,0.8-0.4
			c0.6,0,0.9,0.4,0.9,0.9v4.4H78.7z"/>
		<path class="st0" d="M85.4,63.5C85.3,63.8,85,64,84.6,64c-0.4,0-0.7-0.1-0.8-0.5l-1.1-2.9c0-0.1-0.1-0.1-0.1-0.1
			c-0.1,0-0.1,0-0.1,0.1l0.1,3.3h-1.5v-4.4c0-0.6,0.6-0.9,1.1-0.9c0.6,0,0.9,0.2,1.1,0.7l1.1,2.8c0,0.1,0.1,0.2,0.2,0.2
			c0.1,0,0.1-0.1,0.2-0.2l1.1-2.8c0.2-0.5,0.5-0.7,1.1-0.7c0.6,0,1.1,0.3,1.1,0.9v4.4h-1.5l0.1-3.3c0-0.1,0-0.1-0.1-0.1
			c0,0-0.1,0.1-0.1,0.1L85.4,63.5z"/>
		<path class="st0" d="M92.4,63.9v-2.1h-2.3c-0.9,0-1.4-0.5-1.4-1.4v-1.7h1.5v1.2c0,0.6,0.1,0.8,0.7,0.8h1.4v-2H94v5.2H92.4z"/>
		<path class="st0" d="M98.8,63.9l0.1-3.2c0-0.1,0-0.1-0.1-0.1c0,0-0.1,0-0.2,0.1l-2.1,2.8c-0.3,0.3-0.5,0.4-0.9,0.4
			c-0.5,0-0.9-0.3-0.9-0.9v-4.4h1.5l-0.1,3.2c0,0.1,0,0.1,0.1,0.1s0.1-0.1,0.2-0.1l2.1-2.9c0.2-0.2,0.4-0.4,0.8-0.4
			c0.6,0,0.9,0.4,0.9,0.9v4.4H98.8z"/>
		<path class="st0" d="M103.2,63.9c-1.8,0-2.2-1-2.2-2.6c0-1.6,0.4-2.6,2.2-2.6h2.5v1.1h-1.9c-1,0-1.2,0.6-1.2,1.5s0.2,1.5,1.2,1.5
			h2v1.1H103.2z"/>
	</g>
	<g>
		<path class="st0" d="M108.1,63.9v-4.1h-2v-1.1h5.4v1.1h-2v4.1H108.1z"/>
		<path class="st0" d="M117.6,61.3c0,2.1-0.9,2.7-2.9,2.7c-2,0-2.9-0.5-2.9-2.7c0-2.1,0.9-2.7,2.9-2.7
			C116.8,58.6,117.6,59.2,117.6,61.3z M114.7,62.8c1,0,1.3-0.5,1.3-1.5c0-1-0.3-1.5-1.3-1.5c-1,0-1.3,0.5-1.3,1.5
			C113.4,62.3,113.7,62.8,114.7,62.8z"/>
		<path class="st0" d="M118.3,63.9v-5.2h1.5v5.2H118.3z M122.1,63.9l-1.7-2.1c-0.1-0.1-0.3-0.4-0.3-0.6c0-0.2,0.2-0.5,0.3-0.7
			l1.5-1.9h1.7l-1.8,2.1c-0.1,0.2-0.3,0.3-0.3,0.5c0,0.1,0.1,0.3,0.2,0.4l2,2.3H122.1z"/>
	</g>
	<g>
		<path class="st0" d="M45.4,74.3l0.1-3.2c0-0.1,0-0.1-0.1-0.1c0,0-0.1,0-0.2,0.1l-2.1,2.8c-0.3,0.3-0.5,0.4-0.9,0.4
			c-0.5,0-0.9-0.3-0.9-0.9v-4.4h1.5l-0.1,3.2c0,0.1,0,0.1,0.1,0.1c0.1,0,0.1-0.1,0.2-0.1l2.1-2.9c0.2-0.2,0.4-0.4,0.8-0.4
			c0.6,0,0.9,0.4,0.9,0.9v4.4H45.4z"/>
		<path class="st0" d="M50.1,70.1c0-0.7,0.3-1,1-1h3.2c0.6,0,1,0.3,1,1v4.2h-1.5v-3.8c0-0.2-0.1-0.3-0.3-0.3H52
			c-0.2,0-0.3,0.1-0.3,0.3v3.8h-1.5V70.1z"/>
		<path class="st0" d="M59.2,69.1c1.7,0,2.2,1,2.2,2.6c0,1.6-0.5,2.6-2.2,2.6h-1.5V76h-1.5v-5.9c0-0.6,0.3-1,1-1H59.2z M57.7,73.2
			h1.1c0.9,0,1-0.7,1-1.5c0-0.8-0.1-1.5-1-1.5h-0.7c-0.3,0-0.4,0.1-0.4,0.4V73.2z"/>
		<path class="st0" d="M65.5,69.1c1,0,1.6,0.7,1.6,1.7v2.6c0,0.6-0.3,1-1,1h-2.9c-0.9,0-1.3-0.6-1.3-1.6c0-1,0.4-1.6,1.3-1.6h2.4
			v-0.2c0-0.4-0.2-0.6-0.7-0.6h-2.6v-1.1H65.5z M63.9,72.1c-0.3,0-0.5,0.2-0.5,0.6c0,0.3,0.1,0.6,0.5,0.6h1.3c0.2,0,0.3-0.1,0.3-0.3
			v-0.8H63.9z"/>
		<path class="st0" d="M71.4,74.3v-2.1h-2.3c-0.9,0-1.4-0.5-1.4-1.4v-1.7h1.5v1.2c0,0.6,0.1,0.8,0.7,0.8h1.4v-2h1.5v5.2H71.4z"/>
		<path class="st0" d="M75.6,74.3c-1.7,0-2-0.7-2-2.6c0-2.2,0.6-2.7,2.7-2.7c1.7,0,2.7,0.3,2.7,2.1c0,0.6-0.2,1.1-0.8,1.1h-3
			c0,0.6,0.2,1,1,1h2.5v1.1H75.6z M77.1,71.2c0.3,0,0.3-0.2,0.3-0.3c0-0.5-0.6-0.7-1.1-0.7c-0.7,0-1.1,0.2-1.1,1H77.1z"/>
		<path class="st0" d="M83.1,74.3v-2.1h-2.3c-0.9,0-1.4-0.5-1.4-1.4v-1.7H81v1.2c0,0.6,0.1,0.8,0.7,0.8h1.4v-2h1.5v5.2H83.1z"/>
		<path class="st0" d="M89.1,74.3v-2.1H87v2.1h-1.5v-5.2H87v2h2.1v-2h1.5v5.2H89.1z"/>
		<path class="st0" d="M92.4,74.3c-0.6,0-1-0.3-1-1v-4.3H93v1.8h2.3c1.1,0,1.4,0.7,1.4,1.7c0,1-0.2,1.7-1.4,1.7H92.4z M93,72.8
			c0,0.2,0.1,0.3,0.3,0.3h1.1c0.4,0,0.6-0.2,0.6-0.6s-0.1-0.6-0.6-0.6H93V72.8z M97.2,69.1h1.5v5.2h-1.5V69.1z"/>
		<path class="st0" d="M103.1,74.3l-1.1-1.7l-1.1,1.7H99l2-2.7l-1.9-2.5h1.8l1,1.6l1-1.6h1.8l-1.9,2.5l2,2.7H103.1z"/>
	</g>
</g>
</svg>
