<svg id="Слой_1" xmlns="http://www.w3.org/2000/svg" viewBox="0 0 140 76"><style>.st0,.st1{fill:#494980}.st1{fill-rule:evenodd;clip-rule:evenodd}</style><path class="st0" d="M76.6 34.6c0 4.3-1.2 7-6.4 7H56.6c-2.4 0-3.8-1.2-3.8-3.9V20.2c0-2.7 1.5-3.9 3.8-3.9h13.2c4.4 0 6.3 2.2 6.3 7 0 2.6-.9 4.9-3.7 5.3v.1c3.3.6 4.2 2.7 4.2 5.9zm-17.3-8.1h7.8c1.8 0 2.5-.7 2.5-2.7 0-1.8-.7-2.6-2.5-2.6h-6.2c-1.3 0-1.6.4-1.6 1.6v3.7zm0 8.4c0 1.4.4 1.8 1.8 1.8h6c2 0 2.8-.8 2.8-2.8 0-2-.8-2.8-2.6-2.8h-8v3.8zm28.2 6.7V21.4H78v-5.1h25.3v5.1H94v20.3h-6.5zM130.9 29c0 10.6-3.5 13-13.5 13s-13.5-2.4-13.5-13c0-10.5 3.5-13 13.5-13 9.9 0 13.5 2.4 13.5 13zm-13.5 7.9c5.3 0 6.8-1.9 6.8-7.9s-1.5-7.9-6.8-7.9-6.8 1.9-6.8 7.9 1.5 7.9 6.8 7.9z"/><path class="st1" d="M14.6 0l3 5C10.5 13.3 4.2 20.3 6.2 32.1c3 17.7 32.2 17.9 34-2.5.5-5.5-1.4-9.5-2.8-12.2-1.4-2.6-6.3-9-6.8-9-.4 0-8.1 7.2-9.6 9.1C6.8 37 33 39.9 29.5 26.2c-.4-1.5-2.4-5.2-2.6-5.6-.2-.4 3.6-4.2 3.6-4.2 3.7 3.9 9.4 21-4.8 23.5C11.6 42.3 7.3 27.1 14 17.6 18.8 10.9 28.7 1.3 30.7 1c.5 0 4.9 4.8 6.8 7 7.7 8.8 10 18 6.8 28.6-3.3 10.8-14.1 15.8-26.2 14C.5 48-3.8 27.6 3.2 14.9 6.5 8.8 10.5 3.6 14.6 0"/><path class="st0" d="M31.8 61.2c.7.1 1 .5 1 1.2 0 1.1-.6 1.5-1.6 1.5h-2.6c-.6 0-1-.3-1-1v-3.3c0-.6.3-1 1-1h2.6c.9 0 1.6.2 1.6 1.3 0 .8-.2 1.2-1 1.3zm-1.2-.5c.4 0 .6-.1.6-.5s-.2-.5-.6-.5h-1.1c-.2 0-.3.1-.3.4v.6h1.4zm-1.4 1.8c0 .2.1.4.3.4h1.1c.4 0 .6-.1.6-.5s-.2-.5-.6-.5h-1.5v.6zm6.4 1.4c-1.8 0-2.2-1-2.2-2.6s.4-2.6 2.2-2.6h2.5v1.1h-1.9c-1 0-1.2.6-1.2 1.5s.2 1.5 1.2 1.5h2v1.1h-2.6zm5 0c-1.7 0-2-.7-2-2.6 0-2.2.6-2.7 2.7-2.7 1.7 0 2.7.3 2.7 2.1 0 .6-.2 1.1-.8 1.1h-3c0 .6.2 1 1 1h2.5v1.1h-3.1zm-1.2-5.8V57h1.4v1.1h-1.4zm2.7 2.6c.3 0 .3-.2.3-.3 0-.5-.6-.7-1.1-.7-.7 0-1.1.2-1.1 1h1.9zm-.4-3.7h1.4v1.1h-1.4V57zm4.7 6.8c0-.7.3-1 1-1h.1l1.6-3.6c.2-.5.7-.6 1.2-.6s.9.1 1.1.6l1.6 3.6h.1c.6 0 1 .3 1 1v1.4h-1.5v-.9c0-.2-.1-.3-.3-.3h-4.1c-.2 0-.3.1-.3.3v.9h-1.5v-1.4zm2.6-1h2.5l-1.1-2.7c0-.1-.1-.2-.2-.2s-.1.1-.2.2l-1 2.7zm8.5-2.5c0-.1 0-.2-.1-.2s-.1.1-.1.2l-1.5 3.6h-1.6l2.2-4.8c.2-.4.6-.5 1-.5s.8.1.9.5l2.2 4.8h-1.6l-1.4-3.6zm4.6 1.8l.1-.1c0-.1-.1-.1-.1-.1h-.2c-.9 0-1.2-.8-1.2-1.7s.3-1.6 1.3-1.6h3c.6 0 1 .3 1 1v4.2h-1.5V60c0-.2-.1-.4-.4-.4h-1.3c-.4 0-.5.2-.5.6 0 .4.1.6.5.6h.6c.3 0 .6.1.6.5 0 .3-.1.6-.2.7l-1.4 1.8h-1.7l1.4-1.7zm10.5 1.8l-1.1-1.7-1.1 1.7h-1.8l2-2.7-1.9-2.5h1.8l1 1.6 1-1.6h1.8l-1.9 2.5 2 2.7h-1.8zm6.1 0l.1-3.2c0-.1 0-.1-.1-.1 0 0-.1 0-.2.1l-2.1 2.8c-.2.4-.4.5-.8.5-.5 0-.9-.3-.9-.9v-4.4h1.5l-.1 3.2c0 .1 0 .1.1.1s.1-.1.2-.1l2.1-2.9c.2-.2.4-.4.8-.4.6 0 .9.4.9.9v4.4h-1.5zm6.7-.4c-.1.3-.4.5-.8.5s-.7-.1-.8-.5l-1.1-2.9c0-.1-.1-.1-.1-.1-.1 0-.1 0-.1.1l.1 3.3h-1.5v-4.4c0-.6.6-.9 1.1-.9.6 0 .9.2 1.1.7l1.1 2.8c0 .1.1.2.2.2s.1-.1.2-.2l1.1-2.8c.2-.5.5-.7 1.1-.7.6 0 1.1.3 1.1.9v4.4h-1.5l.1-3.3c0-.1 0-.1-.1-.1l-.1.1-1.1 2.9zm7 .4v-2.1h-2.3c-.9 0-1.4-.5-1.4-1.4v-1.7h1.5v1.2c0 .6.1.8.7.8h1.4v-2H94v5.2h-1.6zm6.4 0l.1-3.2c0-.1 0-.1-.1-.1 0 0-.1 0-.2.1l-2.1 2.8c-.3.3-.5.4-.9.4-.5 0-.9-.3-.9-.9v-4.4h1.5l-.1 3.2c0 .1 0 .1.1.1s.1-.1.2-.1l2.1-2.9c.2-.2.4-.4.8-.4.6 0 .9.4.9.9v4.4h-1.4zm4.4 0c-1.8 0-2.2-1-2.2-2.6s.4-2.6 2.2-2.6h2.5v1.1h-1.9c-1 0-1.2.6-1.2 1.5s.2 1.5 1.2 1.5h2v1.1h-2.6zm4.9 0v-4.1h-2v-1.1h5.4v1.1h-2v4.1h-1.4zm9.5-2.6c0 2.1-.9 2.7-2.9 2.7s-2.9-.5-2.9-2.7c0-2.1.9-2.7 2.9-2.7 2.1 0 2.9.6 2.9 2.7zm-2.9 1.5c1 0 1.3-.5 1.3-1.5s-.3-1.5-1.3-1.5-1.3.5-1.3 1.5.3 1.5 1.3 1.5zm3.6 1.1v-5.2h1.5v5.2h-1.5zm3.8 0l-1.7-2.1c-.1-.1-.3-.4-.3-.6 0-.2.2-.5.3-.7l1.5-1.9h1.7l-1.8 2.1c-.1.2-.3.3-.3.5 0 .1.1.3.2.4l2 2.3h-1.6zM45.4 74.3l.1-3.2c0-.1 0-.1-.1-.1 0 0-.1 0-.2.1l-2.1 2.8c-.3.3-.5.4-.9.4-.5 0-.9-.3-.9-.9V69h1.5l-.1 3.2c0 .1 0 .1.1.1s.1-.1.2-.1l2.1-2.9c.2-.2.4-.4.8-.4.6 0 .9.4.9.9v4.4h-1.4zm4.7-4.2c0-.7.3-1 1-1h3.2c.6 0 1 .3 1 1v4.2h-1.5v-3.8c0-.2-.1-.3-.3-.3H52c-.2 0-.3.1-.3.3v3.8h-1.5v-4.2zm9.1-1c1.7 0 2.2 1 2.2 2.6s-.5 2.6-2.2 2.6h-1.5V76h-1.5v-5.9c0-.6.3-1 1-1h2zm-1.5 4.1h1.1c.9 0 1-.7 1-1.5s-.1-1.5-1-1.5h-.7c-.3 0-.4.1-.4.4v2.6zm7.8-4.1c1 0 1.6.7 1.6 1.7v2.6c0 .6-.3 1-1 1h-2.9c-.9 0-1.3-.6-1.3-1.6s.4-1.6 1.3-1.6h2.4V71c0-.4-.2-.6-.7-.6h-2.6v-1.1h3.2zm-1.6 3c-.3 0-.5.2-.5.6 0 .3.1.6.5.6h1.3c.2 0 .3-.1.3-.3v-.8h-1.6zm7.5 2.2v-2.1h-2.3c-.9 0-1.4-.5-1.4-1.4v-1.7h1.5v1.2c0 .6.1.8.7.8h1.4v-2h1.5v5.2h-1.4zm4.2 0c-1.7 0-2-.7-2-2.6 0-2.2.6-2.7 2.7-2.7 1.7 0 2.7.3 2.7 2.1 0 .6-.2 1.1-.8 1.1h-3c0 .6.2 1 1 1h2.5v1.1h-3.1zm1.5-3.1c.3 0 .3-.2.3-.3 0-.5-.6-.7-1.1-.7-.7 0-1.1.2-1.1 1h1.9zm6 3.1v-2.1h-2.3c-.9 0-1.4-.5-1.4-1.4v-1.7H81v1.2c0 .6.1.8.7.8h1.4v-2h1.5v5.2h-1.5zm6 0v-2.1H87v2.1h-1.5v-5.2H87v2h2.1v-2h1.5v5.2h-1.5zm3.3 0c-.6 0-1-.3-1-1V69H93v1.8h2.3c1.1 0 1.4.7 1.4 1.7s-.2 1.7-1.4 1.7h-2.9zm.6-1.5c0 .2.1.3.3.3h1.1c.4 0 .6-.2.6-.6s-.1-.6-.6-.6H93v.9zm4.2-3.7h1.5v5.2h-1.5v-5.2zm5.9 5.2l-1.1-1.7-1.1 1.7H99l2-2.7-1.9-2.5h1.8l1 1.6 1-1.6h1.8l-1.9 2.5 2 2.7h-1.7z"/></svg>